<mxfile host="Electron" modified="2023-07-09T03:00:28.946Z" agent="Mozilla/5.0 (X11; Linux x86_64) AppleWebKit/537.36 (KHTML, like Gecko) draw.io/21.2.1 Chrome/112.0.5615.87 Electron/24.1.2 Safari/537.36" etag="fa7DD0o4gaQhsMMKx2Bq" version="21.2.1" type="device">
  <diagram name="Страница 1" id="0wH65Vg7fRQZkSQU6u6u">
    <mxGraphModel dx="1114" dy="1969" grid="1" gridSize="10" guides="1" tooltips="1" connect="1" arrows="1" fold="1" page="1" pageScale="1" pageWidth="827" pageHeight="1169" math="0" shadow="0">
      <root>
        <mxCell id="0" />
        <mxCell id="1" parent="0" />
        <mxCell id="mOFGl9SbKQwK7Is2SSl--1" value="&lt;div style=&quot;font-size: 24px;&quot;&gt;&lt;b&gt;Haproxy&lt;/b&gt;&lt;/div&gt;&lt;div style=&quot;font-size: 24px;&quot;&gt;&lt;br&gt;&lt;/div&gt;&lt;div style=&quot;font-size: 24px;&quot;&gt;&lt;br&gt;&lt;/div&gt;&lt;div style=&quot;font-size: 24px;&quot;&gt;&lt;br&gt;&lt;/div&gt;&lt;div style=&quot;font-size: 24px;&quot;&gt;&lt;br&gt;&lt;/div&gt;&lt;div style=&quot;font-size: 24px;&quot;&gt;&lt;br&gt;&lt;/div&gt;&lt;div style=&quot;font-size: 24px;&quot;&gt;&lt;br&gt;&lt;/div&gt;" style="rounded=0;whiteSpace=wrap;html=1;" vertex="1" parent="1">
          <mxGeometry x="30" y="-30" width="420" height="220" as="geometry" />
        </mxCell>
        <mxCell id="mOFGl9SbKQwK7Is2SSl--2" value="&lt;div style=&quot;font-size: 18px;&quot;&gt;&lt;font face=&quot;Courier New&quot;&gt;&lt;div style=&quot;&quot;&gt;systemd&lt;/div&gt;&lt;div style=&quot;&quot;&gt;&amp;nbsp; └─haproxy&lt;/div&gt;&lt;/font&gt;&lt;/div&gt;" style="text;html=1;strokeColor=none;fillColor=none;align=left;verticalAlign=middle;whiteSpace=wrap;rounded=0;" vertex="1" parent="1">
          <mxGeometry x="60" width="150" height="60" as="geometry" />
        </mxCell>
        <mxCell id="mOFGl9SbKQwK7Is2SSl--3" value="&lt;div style=&quot;font-size: 18px;&quot;&gt;&lt;font face=&quot;Courier New&quot; style=&quot;font-size: 18px;&quot;&gt;backend apiserver&lt;/font&gt;&lt;/div&gt;&lt;div style=&quot;font-size: 18px;&quot;&gt;&lt;font face=&quot;Courier New&quot; style=&quot;font-size: 18px;&quot;&gt;&amp;nbsp; server Master_Node_1 &amp;lt;IP&amp;gt;:6443 check&lt;/font&gt;&lt;/div&gt;&lt;div style=&quot;font-size: 18px;&quot;&gt;&lt;font face=&quot;Courier New&quot; style=&quot;font-size: 18px;&quot;&gt;&amp;nbsp; server Master_Node_2 &amp;lt;IP&amp;gt;:6443 check&lt;/font&gt;&lt;/div&gt;&lt;div style=&quot;font-size: 18px;&quot;&gt;&lt;font face=&quot;Courier New&quot; style=&quot;font-size: 18px;&quot;&gt;&amp;nbsp; ...&lt;/font&gt;&lt;/div&gt;&lt;div style=&quot;font-size: 18px;&quot;&gt;&lt;font face=&quot;Courier New&quot; style=&quot;font-size: 18px;&quot;&gt;&amp;nbsp; server Master_Node_N &amp;lt;IP&amp;gt;:6443 check&lt;/font&gt;&lt;/div&gt;" style="text;html=1;strokeColor=none;fillColor=none;align=left;verticalAlign=middle;whiteSpace=wrap;rounded=0;" vertex="1" parent="1">
          <mxGeometry x="40" y="60" width="400" height="120" as="geometry" />
        </mxCell>
      </root>
    </mxGraphModel>
  </diagram>
</mxfile>
